<svg xmlns="http://www.w3.org/2000/svg" width="3061" height="4591" fill="none" viewBox="0 0 3061 4591"><path fill="#000" d="M503.356 1368.48C495.274 1576.32 469.68 1736.92 426.573 1850.29C383.766 1962.75 326.74 2018.98 255.495 2018.98C178.263 2018.98 116.297 1935.76 69.5988 1769.31C23.1996 1602.86 0 1380.18 0 1101.26V912.322C0 729.677 10.7766 569.076 32.3298 430.519C54.1823 291.961 85.0153 185.793 124.829 112.016C164.642 37.3386 210.742 0 263.128 0C332.577 0 388.257 58.4822 430.165 175.447C472.074 291.511 496.471 452.562 503.356 658.599H416.695C409.211 502.047 392.896 388.681 367.751 318.503C342.905 248.324 308.031 213.235 263.128 213.235C208.048 213.235 164.792 274.416 133.36 396.779C102.228 519.142 86.6617 693.239 86.6617 919.07V1109.36C86.6617 1322.6 101.48 1492.19 131.115 1618.16C160.751 1744.12 202.211 1807.1 255.495 1807.1C303.391 1807.1 340.061 1774.71 365.506 1709.93C391.25 1644.25 408.313 1530.43 416.695 1368.48H503.356Z"/><path fill="#000" d="M586.426 1248.37C586.426 1105.31 595.706 976.652 614.265 862.387C633.125 748.122 659.168 659.949 692.396 597.868C725.923 535.787 764.09 504.746 806.897 504.746C873.053 504.746 926.487 573.575 967.199 711.233C1008.21 848.891 1028.72 1031.99 1028.72 1260.52V1278.06C1028.72 1420.22 1019.58 1547.98 1001.32 1661.34C983.364 1773.81 957.47 1861.53 923.643 1924.51C890.116 1987.49 851.5 2018.98 807.795 2018.98C741.938 2018.98 688.504 1950.16 647.493 1812.5C606.782 1674.84 586.426 1492.64 586.426 1265.91V1248.37ZM669.945 1278.06C669.945 1440.01 682.368 1570.02 707.214 1668.09C732.359 1766.16 765.886 1815.2 807.795 1815.2C850.003 1815.2 883.531 1765.71 908.377 1666.74C933.223 1566.87 945.646 1427.41 945.646 1248.37C945.646 1088.22 932.923 958.658 907.478 859.688C882.333 759.818 848.806 709.884 806.897 709.884C765.886 709.884 732.808 758.919 707.663 856.989C682.517 955.059 669.945 1095.42 669.945 1278.06Z"/><path fill="#000" d="M1211.02 531.738L1213.26 693.688C1248.89 567.727 1296.93 504.746 1357.4 504.746C1425.35 504.746 1471.6 583.022 1496.15 739.574C1512.31 669.396 1533.27 612.713 1559.01 569.526C1585.06 526.34 1615.74 504.746 1651.06 504.746C1757.63 504.746 1811.81 674.344 1813.61 1013.54V1991.99H1730.54V1028.39C1730.54 924.018 1722.61 846.192 1706.74 794.908C1690.88 742.724 1664.23 716.631 1626.82 716.631C1595.98 716.631 1570.39 744.523 1550.03 800.306C1529.68 855.189 1517.85 929.417 1514.56 1022.99V1991.99H1431.04V1035.13C1431.04 822.799 1396.47 716.631 1327.32 716.631C1272.83 716.631 1235.57 786.36 1215.51 925.818V1991.99H1132.44V531.738H1211.02Z"/><path fill="#000" d="M2029.59 1991.99H1946.52V531.738H2029.59V1991.99ZM1939.79 144.406C1939.79 103.918 1943.83 69.7287 1951.91 41.8372C1960.29 13.9457 1972.56 0 1988.73 0C2004.89 0 2017.17 13.9457 2025.55 41.8372C2033.93 69.7287 2038.12 103.918 2038.12 144.406C2038.12 184.894 2033.93 218.633 2025.55 245.625C2017.17 272.617 2004.89 286.113 1988.73 286.113C1972.56 286.113 1960.29 272.617 1951.91 245.625C1943.83 218.633 1939.79 184.894 1939.79 144.406Z"/><path fill="#000" d="M2241.53 531.738L2244.22 715.282C2281.34 574.925 2329.84 504.746 2389.71 504.746C2492.39 504.746 2544.17 678.843 2545.07 1027.04V1991.99H2462V1025.69C2461.7 920.419 2453.62 842.593 2437.75 792.208C2422.19 741.824 2397.79 716.631 2364.56 716.631C2337.62 716.631 2313.97 738.225 2293.62 781.412C2273.26 824.599 2257.4 881.281 2246.02 951.46V1991.99H2162.95V531.738H2241.53Z"/><path fill="#000" d="M2650.59 1249.72C2650.59 1022.09 2668.1 841.243 2703.13 707.184C2738.15 572.226 2784.55 504.746 2842.33 504.746C2901.6 504.746 2947.85 567.727 2981.07 693.688L2985.11 531.738H3061V1956.9C3061 2145.85 3042.29 2294.75 3004.87 2403.62C2967.75 2512.48 2917.76 2566.92 2854.9 2566.92C2819.87 2566.92 2785.6 2544.42 2752.07 2499.44C2718.54 2454.45 2692.95 2392.82 2675.29 2314.54L2718.39 2164.74C2754.02 2297 2797.57 2363.13 2849.06 2363.13C2889.47 2363.13 2920.9 2328.94 2943.36 2260.56C2966.11 2192.18 2977.48 2095.91 2977.48 1971.75V1846.24C2944.25 1961.4 2898.9 2018.98 2841.43 2018.98C2784.55 2018.98 2738.45 1950.16 2703.13 1812.5C2668.1 1674.84 2650.59 1487.25 2650.59 1249.72ZM2734.11 1278.06C2734.11 1442.71 2745.34 1572.27 2767.79 1666.74C2790.24 1760.31 2821.67 1807.1 2862.08 1807.1C2914.47 1807.1 2952.93 1735.57 2977.48 1592.51V925.818C2952.04 786.36 2913.87 716.631 2862.98 716.631C2822.57 716.631 2790.99 763.867 2768.24 858.338C2745.49 952.809 2734.11 1092.72 2734.11 1278.06Z"/><path fill="#000" d="M762.643 3688.13C688.704 3624.24 634.821 3545.97 600.994 3453.3C567.467 3359.73 550.704 3244.56 550.704 3107.8C550.704 2953.05 571.209 2825.29 612.22 2724.52C653.53 2622.85 707.114 2572.02 772.971 2572.02C817.873 2572.02 857.836 2598.11 892.86 2650.29C928.184 2702.48 955.424 2774.45 974.583 2866.23C994.04 2958 1003.77 3058.32 1003.77 3167.18H917.108C917.108 3048.42 904.535 2955.3 879.39 2887.82C854.244 2819.44 818.771 2785.25 772.971 2785.25C730.463 2785.25 697.235 2813.59 673.287 2870.27C649.639 2926.06 637.814 3003.88 637.814 3103.75C637.814 3183.83 649.04 3251.76 671.491 3307.54C694.242 3362.42 732.708 3412.81 786.89 3458.7C841.372 3504.58 883.88 3555.42 914.413 3611.2C945.246 3666.08 967.997 3730.41 982.665 3804.19C997.633 3877.97 1005.12 3964.79 1005.12 4064.66C1005.12 4223.91 984.461 4351.67 943.151 4447.94C901.841 4543.31 846.611 4591 777.461 4591C732.559 4591 690.65 4565.36 651.734 4514.07C612.819 4461.89 582.734 4390.81 561.48 4300.84C540.526 4210.87 530.048 4108.75 530.048 3994.48H616.71C616.71 4113.25 631.229 4207.27 660.266 4276.55C689.602 4344.93 728.667 4379.11 777.461 4379.11C822.962 4379.11 857.836 4351.22 882.084 4295.44C906.331 4239.66 918.455 4163.63 918.455 4067.36C918.455 3971.09 907.229 3896.86 884.778 3844.68C862.327 3791.59 821.615 3739.41 762.643 3688.13Z"/><path fill="#000" d="M1081 3820.38C1081 3677.33 1090.28 3548.67 1108.84 3434.4C1127.7 3320.14 1153.74 3231.96 1186.97 3169.88C1220.5 3107.8 1258.67 3076.76 1301.47 3076.76C1367.63 3076.76 1421.06 3145.59 1461.77 3283.25C1502.79 3420.91 1523.29 3604 1523.29 3832.53V3850.08C1523.29 3992.23 1514.16 4119.99 1495.9 4233.36C1477.94 4345.82 1452.05 4433.55 1418.22 4496.53C1384.69 4559.51 1346.08 4591 1302.37 4591C1236.51 4591 1183.08 4522.17 1142.07 4384.51C1101.36 4246.85 1081 4064.66 1081 3837.93V3820.38ZM1164.52 3850.08C1164.52 4012.03 1176.94 4142.04 1201.79 4240.11C1226.93 4338.18 1260.46 4387.21 1302.37 4387.21C1344.58 4387.21 1378.11 4337.73 1402.95 4238.76C1427.8 4138.89 1440.22 3999.43 1440.22 3820.38C1440.22 3660.23 1427.5 3530.67 1402.05 3431.7C1376.91 3331.83 1343.38 3281.9 1301.47 3281.9C1260.46 3281.9 1227.38 3330.93 1202.24 3429C1177.09 3527.07 1164.52 3667.43 1164.52 3850.08Z"/><path fill="#000" d="M1605.46 3820.38C1605.46 3677.33 1614.74 3548.67 1633.3 3434.4C1652.16 3320.14 1678.2 3231.96 1711.43 3169.88C1744.96 3107.8 1783.13 3076.76 1825.93 3076.76C1892.09 3076.76 1945.52 3145.59 1986.23 3283.25C2027.25 3420.91 2047.75 3604 2047.75 3832.53V3850.08C2047.75 3992.23 2038.62 4119.99 2020.36 4233.36C2002.4 4345.82 1976.51 4433.55 1942.68 4496.53C1909.15 4559.51 1870.54 4591 1826.83 4591C1760.97 4591 1707.54 4522.17 1666.53 4384.51C1625.82 4246.85 1605.46 4064.66 1605.46 3837.93V3820.38ZM1688.98 3850.08C1688.98 4012.03 1701.4 4142.04 1726.25 4240.11C1751.4 4338.18 1784.92 4387.21 1826.83 4387.21C1869.04 4387.21 1902.57 4337.73 1927.41 4238.76C1952.26 4138.89 1964.68 3999.43 1964.68 3820.38C1964.68 3660.23 1951.96 3530.67 1926.51 3431.7C1901.37 3331.83 1867.84 3281.9 1825.93 3281.9C1784.92 3281.9 1751.84 3330.93 1726.7 3429C1701.55 3527.07 1688.98 3667.43 1688.98 3850.08Z"/><path fill="#000" d="M2230.5 3103.75L2233.2 3287.3C2270.32 3146.94 2318.81 3076.76 2378.68 3076.76C2481.36 3076.76 2533.15 3250.86 2534.04 3599.05V4564.01H2450.98V3597.7C2450.68 3492.43 2442.59 3414.61 2426.73 3364.22C2411.16 3313.84 2386.76 3288.65 2353.54 3288.65C2326.6 3288.65 2302.95 3310.24 2282.59 3353.43C2262.24 3396.61 2246.37 3453.3 2234.99 3523.48V4564.01H2151.92V3103.75H2230.5Z"/></svg>