<svg width="260" height="77" viewBox="0 0 260 77" fill="none" xmlns="http://www.w3.org/2000/svg">
<rect x="1" y="1" width="258" height="75" fill="#F7F7ED" stroke="black" stroke-width="2"/>
<path d="M28 13.7083H36.1447C38.7949 13.7083 40.7826 14.7472 42.1077 16.825C43.4329 18.9028 44.0954 21.9486 44.0954 25.9625V51.0375C44.0954 55.0514 43.4329 58.0972 42.1077 60.175C40.7826 62.2528 38.7949 63.2917 36.1447 63.2917H28V13.7083ZM36.0477 56.2083C36.9204 56.2083 37.5829 55.8306 38.0354 55.075C38.5202 54.3194 38.7626 53.0917 38.7626 51.3917V25.6083C38.7626 23.9083 38.5202 22.6806 38.0354 21.925C37.5829 21.1694 36.9204 20.7917 36.0477 20.7917H33.3328V56.2083H36.0477Z" fill="#0C0F0A"/>
<path d="M55.4034 64C52.7855 64 50.7816 62.9139 49.3919 60.7417C48.0021 58.5694 47.3072 55.5 47.3072 51.5333V25.4667C47.3072 21.5 48.0021 18.4306 49.3919 16.2583C50.7816 14.0861 52.7855 13 55.4034 13C58.0213 13 60.0252 14.0861 61.415 16.2583C62.8047 18.4306 63.4996 21.5 63.4996 25.4667V51.5333C63.4996 55.5 62.8047 58.5694 61.415 60.7417C60.0252 62.9139 58.0213 64 55.4034 64ZM55.4034 56.9167C57.2457 56.9167 58.1668 55.2875 58.1668 52.0292V24.9708C58.1668 21.7125 57.2457 20.0833 55.4034 20.0833C53.5612 20.0833 52.64 21.7125 52.64 24.9708V52.0292C52.64 55.2875 53.5612 56.9167 55.4034 56.9167Z" fill="#0C0F0A"/>
<path d="M65.8456 13.7083H70.9845L73.36 51.8167H73.457L75.9779 13.7083H81.7956L84.3165 51.8167H84.4135L86.789 13.7083H91.3946L87.9525 63.2917H81.3108L78.8868 29.8583H78.7898L76.3658 63.2917H69.2877L65.8456 13.7083Z" fill="#0C0F0A"/>
<path d="M94.0921 13.7083H100.782L105.97 43.3875H106.067V13.7083H110.818V63.2917H105.34L98.9401 27.0958H98.8432V63.2917H94.0921V13.7083Z" fill="#0C0F0A"/>
<path d="M114.781 13.7083H120.114V56.2083H128.889V63.2917H114.781V13.7083Z" fill="#0C0F0A"/>
<path d="M138.965 64C136.347 64 134.344 62.9139 132.954 60.7417C131.564 58.5694 130.869 55.5 130.869 51.5333V25.4667C130.869 21.5 131.564 18.4306 132.954 16.2583C134.344 14.0861 136.347 13 138.965 13C141.583 13 143.587 14.0861 144.977 16.2583C146.367 18.4306 147.062 21.5 147.062 25.4667V51.5333C147.062 55.5 146.367 58.5694 144.977 60.7417C143.587 62.9139 141.583 64 138.965 64ZM138.965 56.9167C140.808 56.9167 141.729 55.2875 141.729 52.0292V24.9708C141.729 21.7125 140.808 20.0833 138.965 20.0833C137.123 20.0833 136.202 21.7125 136.202 24.9708V52.0292C136.202 55.2875 137.123 56.9167 138.965 56.9167Z" fill="#0C0F0A"/>
<path d="M154.694 13.7083H161.918L167.444 63.2917H162.112L161.142 53.4458V53.5875H155.082L154.112 63.2917H149.167L154.694 13.7083ZM160.512 46.8583L158.136 22.35H158.039L155.712 46.8583H160.512Z" fill="#0C0F0A"/>
<path d="M170.032 13.7083H178.176C180.827 13.7083 182.814 14.7472 184.139 16.825C185.465 18.9028 186.127 21.9486 186.127 25.9625V51.0375C186.127 55.0514 185.465 58.0972 184.139 60.175C182.814 62.2528 180.827 63.2917 178.176 63.2917H170.032V13.7083ZM178.079 56.2083C178.952 56.2083 179.615 55.8306 180.067 55.075C180.552 54.3194 180.794 53.0917 180.794 51.3917V25.6083C180.794 23.9083 180.552 22.6806 180.067 21.925C179.615 21.1694 178.952 20.7917 178.079 20.7917H175.365V56.2083H178.079Z" fill="#0C0F0A"/>
<path d="M205.006 64C202.452 64 200.497 62.9375 199.14 60.8125C197.814 58.6875 197.152 55.6889 197.152 51.8167V25.1833C197.152 21.3111 197.814 18.3125 199.14 16.1875C200.497 14.0625 202.452 13 205.006 13C207.559 13 209.498 14.0625 210.823 16.1875C212.181 18.3125 212.859 21.3111 212.859 25.1833V30.425H207.817V24.6875C207.817 21.6181 206.929 20.0833 205.151 20.0833C203.373 20.0833 202.485 21.6181 202.485 24.6875V52.3833C202.485 55.4056 203.373 56.9167 205.151 56.9167C206.929 56.9167 207.817 55.4056 207.817 52.3833V44.8042H212.859V51.8167C212.859 55.6889 212.181 58.6875 210.823 60.8125C209.498 62.9375 207.559 64 205.006 64Z" fill="#0C0F0A"/>
<path d="M214.644 13.7083H220.025L223.516 52.1708H223.613L227.104 13.7083H232L226.861 63.2917H219.783L214.644 13.7083Z" fill="#0C0F0A"/>
</svg>
