<svg width="235" height="88" viewBox="0 0 235 88" fill="none" xmlns="http://www.w3.org/2000/svg">
<rect y="10" width="215" height="76" fill="#0C0F0A"/>
<g filter="url(#filter0_d_514_6)">
<rect x="9" y="2" width="220" height="76" fill="#F7F7ED"/>
<rect x="8" y="1" width="222" height="78" stroke="black" stroke-width="2"/>
</g>
<path d="M22 17.6389H29.7055C32.2128 17.6389 34.0933 18.5759 35.347 20.45C36.6007 22.3241 37.2275 25.0713 37.2275 28.6917V51.3083C37.2275 54.9287 36.6007 57.6759 35.347 59.55C34.0933 61.4241 32.2128 62.3611 29.7055 62.3611H22V17.6389ZM29.6137 55.9722C30.4393 55.9722 31.0662 55.6315 31.4942 54.95C31.9529 54.2685 32.1822 53.1611 32.1822 51.6278V28.3722C32.1822 26.8389 31.9529 25.7315 31.4942 25.05C31.0662 24.3685 30.4393 24.0278 29.6137 24.0278H27.0453V55.9722H29.6137ZM47.9257 63C45.449 63 43.5532 62.0204 42.2383 60.0611C40.9235 58.1019 40.2661 55.3333 40.2661 51.7556V28.2444C40.2661 24.6667 40.9235 21.8981 42.2383 19.9389C43.5532 17.9796 45.449 17 47.9257 17C50.4025 17 52.2983 17.9796 53.6131 19.9389C54.9279 21.8981 55.5853 24.6667 55.5853 28.2444V51.7556C55.5853 55.3333 54.9279 58.1019 53.6131 60.0611C52.2983 62.0204 50.4025 63 47.9257 63ZM47.9257 56.6111C49.6686 56.6111 50.5401 55.1417 50.5401 52.2028V27.7972C50.5401 24.8583 49.6686 23.3889 47.9257 23.3889C46.1828 23.3889 45.3114 24.8583 45.3114 27.7972V52.2028C45.3114 55.1417 46.1828 56.6111 47.9257 56.6111ZM57.8049 17.6389H62.6666L64.9141 52.0111H65.0058L67.3908 17.6389H72.8947L75.2798 52.0111H75.3715L77.6189 17.6389H81.9762L78.7197 62.3611H72.4361L70.1428 32.2056H70.0511L67.7578 62.3611H61.0613L57.8049 17.6389ZM84.5281 17.6389H90.8576L95.7653 44.4083H95.857V17.6389H100.352V62.3611H95.169L89.1147 29.7139H89.023V62.3611H84.5281V17.6389ZM104.102 17.6389H109.147V55.9722H117.449V62.3611H104.102V17.6389ZM126.982 63C124.505 63 122.609 62.0204 121.294 60.0611C119.98 58.1019 119.322 55.3333 119.322 51.7556V28.2444C119.322 24.6667 119.98 21.8981 121.294 19.9389C122.609 17.9796 124.505 17 126.982 17C129.459 17 131.354 17.9796 132.669 19.9389C133.984 21.8981 134.641 24.6667 134.641 28.2444V51.7556C134.641 55.3333 133.984 58.1019 132.669 60.0611C131.354 62.0204 129.459 63 126.982 63ZM126.982 56.6111C128.725 56.6111 129.596 55.1417 129.596 52.2028V27.7972C129.596 24.8583 128.725 23.3889 126.982 23.3889C125.239 23.3889 124.367 24.8583 124.367 27.7972V52.2028C124.367 55.1417 125.239 56.6111 126.982 56.6111ZM141.862 17.6389H148.696L153.926 62.3611H148.88L147.962 53.4806V53.6083H142.229L141.312 62.3611H136.634L141.862 17.6389ZM147.366 47.5389L145.119 25.4333H145.027L142.826 47.5389H147.366ZM156.373 17.6389H164.079C166.586 17.6389 168.466 18.5759 169.72 20.45C170.974 22.3241 171.601 25.0713 171.601 28.6917V51.3083C171.601 54.9287 170.974 57.6759 169.72 59.55C168.466 61.4241 166.586 62.3611 164.079 62.3611H156.373V17.6389ZM163.987 55.9722C164.812 55.9722 165.439 55.6315 165.867 54.95C166.326 54.2685 166.555 53.1611 166.555 51.6278V28.3722C166.555 26.8389 166.326 25.7315 165.867 25.05C165.439 24.3685 164.812 24.0278 163.987 24.0278H161.418V55.9722H163.987ZM189.46 63C187.045 63 185.195 62.0417 183.911 60.125C182.657 58.2083 182.03 55.5037 182.03 52.0111V27.9889C182.03 24.4963 182.657 21.7917 183.911 19.875C185.195 17.9583 187.045 17 189.46 17C191.876 17 193.711 17.9583 194.964 19.875C196.248 21.7917 196.891 24.4963 196.891 27.9889V32.7167H192.121V27.5417C192.121 24.7731 191.28 23.3889 189.598 23.3889C187.916 23.3889 187.075 24.7731 187.075 27.5417V52.5222C187.075 55.2481 187.916 56.6111 189.598 56.6111C191.28 56.6111 192.121 55.2481 192.121 52.5222V45.6861H196.891V52.0111C196.891 55.5037 196.248 58.2083 194.964 60.125C193.711 62.0417 191.876 63 189.46 63ZM198.58 17.6389H203.671L206.973 52.3306H207.065L210.368 17.6389H215L210.138 62.3611H203.442L198.58 17.6389Z" fill="black"/>
<defs>
<filter id="filter0_d_514_6" x="3" y="0" width="232" height="88" filterUnits="userSpaceOnUse" color-interpolation-filters="sRGB">
<feFlood flood-opacity="0" result="BackgroundImageFix"/>
<feColorMatrix in="SourceAlpha" type="matrix" values="0 0 0 0 0 0 0 0 0 0 0 0 0 0 0 0 0 0 127 0" result="hardAlpha"/>
<feOffset dy="4"/>
<feGaussianBlur stdDeviation="2"/>
<feComposite in2="hardAlpha" operator="out"/>
<feColorMatrix type="matrix" values="0 0 0 0 0 0 0 0 0 0 0 0 0 0 0 0 0 0 0.25 0"/>
<feBlend mode="normal" in2="BackgroundImageFix" result="effect1_dropShadow_514_6"/>
<feBlend mode="normal" in="SourceGraphic" in2="effect1_dropShadow_514_6" result="shape"/>
</filter>
</defs>
</svg>
